<svg width="400" height="250" viewBox="0 0 400 250" fill="none" xmlns="http://www.w3.org/2000/svg">
  <rect width="400" height="250" fill="#1a1a2e"/>
  <rect x="50" y="50" width="300" height="150" fill="#16213e" rx="8"/>
  <text x="200" y="130" text-anchor="middle" fill="#27ae60" font-family="Arial, sans-serif" font-size="24" font-weight="bold">Real Estate</text>
  <rect x="80" y="70" width="60" height="60" fill="#27ae60" rx="4"/>
  <rect x="160" y="70" width="60" height="60" fill="#27ae60" rx="4"/>
  <rect x="240" y="70" width="60" height="60" fill="#27ae60" rx="4"/>
  <rect x="80" y="140" width="60" height="60" fill="#27ae60" rx="4"/>
  <rect x="160" y="140" width="60" height="60" fill="#27ae60" rx="4"/>
  <rect x="240" y="140" width="60" height="60" fill="#27ae60" rx="4"/>
  <rect x="90" y="80" width="40" height="40" fill="#1a1a2e" rx="2"/>
  <rect x="170" y="80" width="40" height="40" fill="#1a1a2e" rx="2"/>
  <rect x="250" y="80" width="40" height="40" fill="#1a1a2e" rx="2"/>
  <rect x="90" y="150" width="40" height="40" fill="#1a1a2e" rx="2"/>
  <rect x="170" y="150" width="40" height="40" fill="#1a1a2e" rx="2"/>
  <rect x="250" y="150" width="40" height="40" fill="#1a1a2e" rx="2"/>
</svg>
